<?xml version="1.0" standalone="no"?>
<!DOCTYPE svg PUBLIC "-//W3C//DTD SVG 20010904//EN"
 "http://www.w3.org/TR/2001/REC-SVG-20010904/DTD/svg10.dtd">
<svg version="1.0" xmlns="http://www.w3.org/2000/svg"
 width="60.000000pt" height="60.240000pt" viewBox="0 0 60.000000 60.240000"
 preserveAspectRatio="xMidYMid meet">
<metadata>
Created by potrace 1.15, written by Peter Selinger 2001-2017
</metadata>
<g transform="translate(0.000000,60.240000) scale(0.024000,-0.024000)"
fill="#000000" stroke="none">
<path d="M0 1255 l0 -1255 1250 0 1250 0 0 1019 0 1019 -113 108 c-121 116
-264 226 -404 312 l-86 52 -949 0 -948 0 0 -1255z m695 1114 l50 -13 -104 -13
c-124 -16 -286 -67 -388 -124 -40 -22 -73 -37 -73 -34 0 15 41 82 62 101 33
31 95 60 175 84 76 22 190 22 278 -1z m283 -90 l102 -33 0 -36 c0 -46 43 -136
68 -144 53 -17 72 24 40 88 -12 25 -19 48 -16 51 3 4 46 -8 96 -25 l89 -32 6
-69 c7 -82 24 -123 54 -127 37 -5 51 29 40 93 -6 30 -7 58 -4 62 4 3 49 -10
101 -31 l93 -37 6 -57 c9 -102 47 -146 90 -104 18 18 19 25 9 63 -6 24 -9 45
-7 47 2 2 35 -13 73 -33 l69 -36 7 -82 c7 -87 25 -127 55 -127 31 0 43 25 39
84 -4 64 0 64 86 -15 l56 -51 -6 -77 c-7 -83 4 -121 34 -121 30 0 45 17 51 56
l7 39 42 -75 c53 -96 58 -123 37 -210 -14 -56 -15 -73 -5 -85 15 -18 46 -20
56 -3 14 22 22 -32 23 -154 l1 -118 -39 0 c-44 0 -64 -18 -59 -52 2 -18 12
-25 44 -33 l42 -10 -22 -85 -21 -85 -46 -5 c-52 -6 -79 -23 -79 -51 0 -21 36
-49 63 -49 23 0 20 -10 -28 -96 l-34 -61 -56 -6 c-61 -6 -85 -20 -85 -46 0
-24 20 -41 50 -41 22 -1 18 -8 -48 -71 -56 -53 -77 -68 -85 -60 -24 24 -12
233 23 431 53 296 45 429 -36 599 -48 103 -107 182 -205 276 -104 100 -236
188 -449 300 -259 136 -344 207 -411 343 -36 73 -51 149 -28 140 8 -3 60 -20
117 -39z m-204 -25 c4 -9 5 -18 4 -19 -2 -1 -50 -16 -108 -34 -131 -41 -248
-96 -326 -154 -58 -42 -62 -44 -88 -30 -15 8 -46 18 -69 22 l-42 7 32 31 c68
64 264 149 398 172 146 26 191 27 199 5z m77 -171 c56 -86 55 -83 29 -83 -36
0 -220 -40 -285 -61 -33 -12 -89 -35 -124 -52 -42 -21 -66 -27 -68 -20 -2 6
-17 29 -33 51 l-28 39 76 46 c43 25 104 57 137 72 62 27 208 74 236 74 8 1 35
-29 60 -66z m-616 -146 c44 -25 98 -98 115 -155 6 -20 33 -189 60 -374 50
-349 73 -460 114 -550 53 -119 162 -230 286 -293 25 -12 110 -48 190 -80 165
-64 275 -121 339 -173 49 -40 138 -155 123 -160 -10 -3 -242 45 -249 52 -3 2
0 13 6 24 7 14 6 24 -5 40 -21 30 -45 27 -78 -7 l-28 -29 -86 29 c-81 27 -122
49 -94 49 17 0 52 37 52 55 0 8 -11 22 -24 30 -22 14 -29 14 -101 -9 l-77 -25
-64 32 -63 31 24 22 c20 18 23 28 16 46 -10 29 -60 35 -121 14 l-43 -15 -69
69 c-37 37 -68 73 -68 79 0 6 17 11 39 11 40 0 71 20 71 44 0 26 -34 41 -99
46 l-66 5 -33 89 c-18 48 -31 90 -28 93 2 2 24 -2 48 -11 49 -17 81 -5 86 32
4 27 -35 52 -118 77 l-59 18 -21 91 c-11 50 -22 99 -24 109 -5 19 2 17 54 -23
51 -39 67 -43 90 -20 16 16 18 25 10 40 -10 19 -149 134 -170 142 -10 3 -34
211 -28 248 3 23 8 20 77 -47 40 -40 76 -73 78 -73 19 0 43 25 43 44 0 43
-118 161 -180 181 -18 6 -20 15 -20 109 0 56 3 106 7 109 12 13 48 7 88 -16z
m771 -47 c41 -102 57 -125 89 -125 26 0 31 4 35 31 l5 30 150 -79 c242 -127
372 -222 481 -350 110 -128 163 -249 171 -390 l6 -88 -38 -55 c-78 -112 -200
-197 -355 -246 -108 -33 -292 -33 -400 0 -209 66 -379 203 -513 414 -31 50
-57 85 -57 77 0 -8 9 -48 21 -89 42 -152 127 -267 234 -316 53 -25 65 -37 46
-48 -18 -11 -130 56 -179 107 -105 112 -137 210 -206 637 l-24 145 29 33 c44
50 32 114 -20 97 -24 -7 -27 -2 -36 58 l-7 47 83 39 c91 43 161 63 309 91 149
28 157 27 176 -20z m-48 -1257 c2 -8 -5 -13 -17 -13 -12 0 -21 6 -21 16 0 18
31 15 38 -3z"/>
<path d="M917 1783 c-29 -28 18 -99 87 -132 46 -23 71 -20 86 9 14 27 2 48
-39 70 -20 10 -46 28 -58 39 -21 20 -63 28 -76 14z"/>
<path d="M779 1713 c-12 -32 -5 -92 16 -134 19 -36 60 -48 83 -25 14 14 15 20
3 49 -7 17 -19 55 -25 82 -11 43 -16 50 -39 53 -22 3 -29 -2 -38 -25z"/>
<path d="M632 1668 c-5 -7 -11 -51 -13 -98 -4 -85 -4 -85 22 -88 38 -4 62 28
67 93 3 40 0 62 -12 80 -18 27 -47 33 -64 13z"/>
<path d="M1179 1415 c-151 -48 -250 -189 -236 -335 6 -71 34 -126 88 -174 65
-59 120 -80 214 -80 70 0 90 4 148 32 82 38 177 124 177 160 0 32 -104 152
-131 152 -11 0 -60 -20 -109 -45 -100 -50 -126 -55 -135 -24 -17 51 80 117
184 126 45 4 64 11 71 23 14 26 -8 135 -31 156 -27 24 -175 30 -240 9z"/>
<path d="M2246 2436 c86 -64 123 -94 232 -190 l22 -19 0 141 0 142 -176 0
-177 0 99 -74z"/>
</g>
</svg>
